# xmcd
#
# Track frame offsets: 
#        150
#        18813
#        40957
#        62973
#        82865
#        103345
#        128510
#        151371
#        170162
#
# Disc length: 2454 seconds
#
# Revision: 0
# Processed by: cddbd v1.5.2PL0 Copyright (c) Steve Scherf et al.
# Submitted via: ExactAudioCopy v1.3
#
DISCID=6d099409
DTITLE=Dante Zapata - Burning Up
DYEAR=2016
DGENRE=R&B
TTITLE0=When I'm with you
TTITLE1=Why you so mad at me
TTITLE2=Love Song
TTITLE3=Stay Home
TTITLE4=Yeah Yeah Yeah
TTITLE5=Now That You're Gone
TTITLE6=Dancing High
TTITLE7=Burnin Up
TTITLE8=Dope (Instrumental)
EXTD=
EXTT0=
EXTT1=
EXTT2=
EXTT3=
EXTT4=
EXTT5=
EXTT6=
EXTT7=
EXTT8=
PLAYORDER=
